<svg xmlns="http://www.w3.org/2000/svg" viewBox="0 0 542.34 126.2"><defs><style>.cls-1{font-size:102.76px;font-family:MarkPro-Bold, Mark Pro;font-weight:700;letter-spacing:0.03em;}.cls-2{letter-spacing:0.03em;}.cls-3{letter-spacing:0.02em;}.cls-4{letter-spacing:0.03em;}.cls-5{fill:#008ff4;}</style></defs><title>instanta-logo</title><g id="Layer_2" data-name="Layer 2"><g id="Layer_1-2" data-name="Layer 1"><text class="cls-1" transform="translate(96.7 101.9)">in<tspan class="cls-2" x="94.38" y="0">s</tspan><tspan class="cls-3" x="149.2" y="0">t</tspan><tspan x="199.6" y="0">a</tspan><tspan class="cls-4" x="265.77" y="0">n</tspan><tspan class="cls-3" x="329.07" y="0">t</tspan><tspan x="379.47" y="0">a</tspan></text><path class="cls-5" d="M38.63,83.75H37.37c-3.52,0-6.37,2.15-6.37,4.81V99.94c0,2.66,2.85,4.81,6.37,4.81h1.26c3.52,0,6.37-2.15,6.37-4.81V88.56C45,85.9,42.15,83.75,38.63,83.75Z"/><path class="cls-5" d="M37,0A37,37,0,1,0,74,37,37,37,0,0,0,37,0Zm0,45a8,8,0,1,1,8-8A8,8,0,0,1,37,45Z"/></g></g></svg>